<svg xmlns="http://www.w3.org/2000/svg" viewBox="0 0 128 128">
  <rect width="96" height="96" x="16" y="16" fill="#ED79CE" rx="5"/>
  <path fill="#fff" d="M28 40.875A7.875 7.875 0 0 1 35.875 33h38.25A7.872 7.872 0 0 1 82 40.875v24.75a7.875 7.875 0 0 1-7.875 7.875h-14.35L48.19 85.079A6.556 6.556 0 0 1 37 80.444V73.5h-1.125A7.875 7.875 0 0 1 28 65.625v-24.75Zm7.875-1.125a1.125 1.125 0 0 0-1.125 1.125v24.75c0 .621.504 1.125 1.125 1.125h4.5a3.375 3.375 0 0 1 3.375 3.375v9.85L55.99 67.74a3.375 3.375 0 0 1 2.385-.99h15.75a1.125 1.125 0 0 0 1.125-1.125v-24.75a1.125 1.125 0 0 0-1.125-1.125h-38.25Zm56.25 9h-2.25a3.375 3.375 0 0 1 0-6.75h2.25A7.872 7.872 0 0 1 100 49.875v24.75a7.875 7.875 0 0 1-7.875 7.875H91v6.944a6.557 6.557 0 0 1-11.192 4.635L69.49 83.76a3.375 3.375 0 0 1 1.094-5.501 3.374 3.374 0 0 1 3.676.731l9.99 9.986v-9.851a3.375 3.375 0 0 1 3.375-3.375h4.5a1.125 1.125 0 0 0 1.125-1.125v-24.75a1.125 1.125 0 0 0-1.125-1.125Z"/>
  <path fill="#fff" d="M56.371 43.373a3.374 3.374 0 0 0-4.646 3.15l.045 3.338-3.406.046a3.375 3.375 0 0 0 .045 6.75l3.384-.045v3.383a3.375 3.375 0 0 0 6.75 0V56.59h3.339a3.375 3.375 0 0 0 0-6.75h-3.361l-.046-3.361a3.377 3.377 0 0 0-2.104-3.105Z"/>
</svg>